<?xml version="1.0" encoding="UTF-8"?><svg id="Layer_1" xmlns="http://www.w3.org/2000/svg" xmlns:xlink="http://www.w3.org/1999/xlink" viewBox="0 0 1938.16098 888.44685"><defs><clipPath id="clippath"><rect x="-991.96255" y="1231.32625" width="562.50121" height="477.23782" rx="6.9295" ry="6.9295" style="fill:none; stroke:#000; stroke-miterlimit:10; stroke-width:1.5px;"/></clipPath><clipPath id="clippath-1"><rect x="-991.96255" y="72.32843" width="562.50121" height="477.23782" rx="6.9295" ry="6.9295" style="fill:none; stroke:#000; stroke-miterlimit:10; stroke-width:1.5px;"/></clipPath><image id="image" width="1506" height="1594" xlink:href="../../../../../../../../../../../../../Downloads/image (31).png"/></defs><path d="M1012.69391-1.18145v516.4658c0,10.34369,8.38522,18.72891,18.72891,18.72891h908.39874" style="fill:none; stroke:#ff8086; stroke-miterlimit:10; stroke-width:2px;"/><path d="M-1.17624,39.17324h618.04676c11.11407,0,20.1238,9.00973,20.1238,20.1238v291.55298c0,11.11407,9.00973,20.1238,20.1238,20.1238h1282.70345" style="fill:none; stroke:#00efee; stroke-miterlimit:10; stroke-width:2px;"/><line x1="-1.17624" y1="80.33828" x2="1939.82156" y2="80.33828" style="fill:none; stroke:#c500ff; stroke-miterlimit:10; stroke-width:2px;"/><path d="M-1.17624,509.20292h79.30771c11.11407,0,20.1238-9.00973,20.1238-20.1238v-200.76724c0-11.11407,9.00973-20.1238,20.1238-20.1238h1821.44249" style="fill:none; stroke:#005d0e; stroke-miterlimit:10; stroke-width:2px;"/><path d="M1939.82156,665.15369h-105.98395c-11.11407,0-20.1238-9.00973-20.1238-20.1238V203.24782c0-11.11407-9.00973-20.1238-20.1238-20.1238H-1.17624" style="fill:none; stroke:#2d00fd; stroke-miterlimit:10; stroke-width:2px;"/><path d="M-1.17624,587.1783h1525.39673c11.11407,0,20.1238,9.00973,20.1238,20.1238v179.50123c0,11.11407,9.00973,20.1238,20.1238,20.1238h375.35347" style="fill:none; stroke:#00f67a; stroke-miterlimit:10; stroke-width:2px;"/><path d="M-1.17624,845.91482h394.7536c11.11407,0,20.1238-9.00973,20.1238-20.1238v-331.90767c0-11.11407,9.00973-20.1238,20.1238-20.1238h1505.9966" style="fill:none; stroke:#ff7cff; stroke-miterlimit:10; stroke-width:2px;"/><g style="clip-path:url(#clippath);"><use transform="translate(-1004.87438 863.35381) scale(.66823)" xlink:href="#image"/></g><rect x="-991.96255" y="1231.32625" width="562.50121" height="477.23782" rx="6.9295" ry="6.9295" style="fill:none; stroke:#000; stroke-miterlimit:10; stroke-width:1.5px;"/><g style="clip-path:url(#clippath-1);"><use transform="translate(-1004.87438 -295.64401) scale(.66823)" xlink:href="#image"/></g><rect x="-991.96255" y="72.32843" width="562.50121" height="477.23782" rx="6.9295" ry="6.9295" style="fill:none; stroke:#000; stroke-miterlimit:10; stroke-width:1.5px;"/></svg>